<?xml version="1.0" standalone="no"?>
<!DOCTYPE svg PUBLIC "-//W3C//DTD SVG 20010904//EN"
 "http://www.w3.org/TR/2001/REC-SVG-20010904/DTD/svg10.dtd">
<svg version="1.0" xmlns="http://www.w3.org/2000/svg"
 width="349.000000pt" height="84.000000pt" viewBox="0 0 349.000000 84.000000"
 preserveAspectRatio="xMidYMid meet">

<g transform="translate(0.000000,84.000000) scale(0.100000,-0.100000)"
fill="#000000" stroke="none">
<path d="M246 598 c-15 -46 -26 -87 -26 -91 0 -4 27 -7 60 -7 51 0 60 3 59 18
0 32 -44 155 -56 159 -7 3 -22 -28 -37 -79z"/>
<path d="M585 668 c-60 -164 -60 -168 15 -168 33 0 60 3 60 7 0 4 -11 44 -25
90 -24 78 -40 100 -50 71z"/>
<path d="M352 497 c11 -47 84 -267 88 -267 8 1 89 263 84 272 -3 4 -43 8 -90
8 -66 0 -85 -3 -82 -13z"/>
</g>
</svg>
